<?xml version="1.0" encoding="utf-8"?>
<!-- Generator: Adobe Illustrator 16.0.0, SVG Export Plug-In . SVG Version: 6.00 Build 0)  -->
<!DOCTYPE svg PUBLIC "-//W3C//DTD SVG 1.1//EN" "http://www.w3.org/Graphics/SVG/1.1/DTD/svg11.dtd">
<svg version="1.1" id="Layer_1" xmlns="http://www.w3.org/2000/svg" xmlns:xlink="http://www.w3.org/1999/xlink" x="0px" y="0px"
	 width="240px" height="240px" viewBox="0 0 240 240" enable-background="new 0 0 240 240" xml:space="preserve">
<g>
	<path fill-rule="evenodd" clip-rule="evenodd" fill="#1FE8A4" d="M237.439,121.439c-0.395,0.676-16.048,27.419-24.197,41.449
		c-5.666,9.757-10.201,9.856-15.756,0.218c-12.844-22.283-25.646-44.59-38.52-66.856c-1.463-2.53-2.731-5.062-1.723-7.981
		c1.127-3.254,3.74-4.412,7.037-4.408c16.407,0.019,32.814,0.04,49.221-0.015c3.628-0.013,5.758,1.875,7.445,4.838
		c5.561,9.753,16.286,28.223,16.475,28.551C238.254,118.692,237.836,120.764,237.439,121.439z"/>
	<path fill-rule="evenodd" clip-rule="evenodd" fill="#1FE8A4" d="M2.186,118.356c0.396-0.676,16.048-27.419,24.198-41.449
		c5.666-9.757,10.201-9.856,15.755-0.218c12.844,22.283,25.647,44.59,38.52,66.856c1.463,2.53,2.731,5.062,1.722,7.981
		c-1.126,3.254-3.74,4.412-7.037,4.408c-16.407-0.019-32.814-0.04-49.221,0.015c-3.627,0.013-5.757-1.875-7.445-4.838
		c-5.561-9.753-16.286-28.223-16.474-28.551C1.372,121.104,1.791,119.032,2.186,118.356z"/>
	<path fill-rule="evenodd" clip-rule="evenodd" fill="#7D4FFE" d="M69.125,222.796c-5.532,0.109-8.872-1.657-11.548-6.553
		c-7.097-12.98-14.647-25.71-22.023-38.536c-4.512-7.847-1.939-12.514,6.958-12.518c32.037-0.013,64.074-0.066,96.112,0.081
		c3.628,0.017,5.675-1.056,7.378-4.294c3.558-6.763,7.498-13.329,11.409-19.899c3.655-6.138,9.125-6.232,12.752-0.061
		c8.254,14.045,16.285,28.222,24.46,42.315c1.807,3.117,1.369,5.91-0.392,8.896c-4.979,8.448-9.936,16.916-14.646,25.517
		c-2.028,3.704-4.944,4.986-8.873,4.986L69.125,222.796z"/>
	<path fill-rule="evenodd" clip-rule="evenodd" fill="#7D4FFE" d="M168.941,16.806c5.532-0.109,8.872,1.657,11.548,6.553
		c7.098,12.98,14.646,25.71,22.023,38.536c4.513,7.847,1.938,12.514-6.957,12.518c-32.037,0.013-64.074,0.066-96.111-0.081
		c-3.629-0.017-5.675,1.056-7.379,4.294c-3.558,6.763-7.498,13.329-11.409,19.899c-3.655,6.138-9.125,6.233-12.752,0.061
		C59.651,84.54,51.62,70.363,43.446,56.27c-1.808-3.118-1.369-5.911,0.391-8.897c4.978-8.449,9.935-16.916,14.646-25.517
		c2.03-3.704,4.945-4.986,8.874-4.986L168.941,16.806z"/>
	<path fill-rule="evenodd" clip-rule="evenodd" fill="#E91E63" d="M119.13,151.907c-17.973-0.056-31.766-14.272-31.662-32.637
		c0.098-17.541,14.542-31.883,32.2-31.975c17.477-0.091,32.308,14.835,32.296,32.503
		C151.952,137.986,137.658,151.964,119.13,151.907z"/>
</g>
</svg>
